<?xml version="1.0" encoding="UTF-8"?>
<svg id="Layer_1" data-name="Layer 1" xmlns="http://www.w3.org/2000/svg" viewBox="0 0 379.7 197.26">
  <defs>
    <style>
      .cls-1 {
        fill: #eb2660;
      }
    </style>
  </defs>
  <g id="Vitality_Logo_White" data-name="Vitality Logo White">
    <g>
      <path class="cls-1" d="M379.7,96.53c0,1.2-.22,2.32-.67,3.36-.44,1.04-1.07,1.95-1.82,2.71-.78,.77-1.69,1.37-2.75,1.82-1.04,.44-2.17,.67-3.37,.67s-2.37-.22-3.42-.65c-1.04-.43-1.95-1.02-2.69-1.77-.75-.75-1.35-1.65-1.78-2.68-.42-1.04-.62-2.17-.62-3.42s.22-2.31,.67-3.35c.44-1.03,1.04-1.94,1.82-2.7s1.69-1.37,2.73-1.81c1.04-.44,2.17-.66,3.37-.66s2.4,.21,3.44,.64c1.04,.42,1.93,1.01,2.69,1.76,.75,.75,1.33,1.65,1.75,2.68,.44,1.04,.64,2.17,.64,3.39m-1.98,.13c0-1.04-.16-1.98-.49-2.82-.33-.85-.78-1.57-1.38-2.18-.58-.61-1.26-1.07-2.06-1.39-.8-.32-1.69-.48-2.62-.48-1,0-1.91,.17-2.73,.52-.8,.35-1.49,.83-2.09,1.44-.58,.61-1.02,1.33-1.33,2.13-.33,.81-.49,1.68-.49,2.6,0,1.02,.18,1.95,.51,2.8,.31,.85,.78,1.57,1.35,2.18,.6,.61,1.29,1.07,2.09,1.4,.8,.33,1.66,.49,2.6,.49,1.02,0,1.93-.18,2.75-.54,.82-.36,1.51-.84,2.09-1.44,.58-.61,1.02-1.32,1.33-2.12,.31-.81,.47-1.68,.47-2.6m-2.57,4.01c0,.06-.02,.11-.04,.16s-.07,.09-.16,.11c-.09,.02-.22,.04-.38,.05-.16,.02-.38,.02-.64,.02s-.47,0-.62-.02c-.13-.01-.27-.04-.35-.08-.11-.04-.18-.09-.22-.15-.04-.06-.09-.16-.13-.27l-.44-1.51c-.18-.54-.4-.91-.62-1.13-.24-.21-.62-.32-1.09-.32h-.6v3.07c0,.16-.07,.27-.18,.33-.13,.06-.42,.09-.87,.09s-.75-.03-.91-.09c-.13-.06-.22-.17-.22-.33v-7.86c0-.32,.09-.57,.24-.76,.18-.18,.4-.27,.73-.27h2.51c.6,0,1.11,.05,1.55,.15,.44,.1,.82,.26,1.13,.48,.31,.22,.55,.49,.71,.82,.16,.33,.24,.72,.24,1.17,0,.7-.2,1.24-.58,1.63-.38,.39-.89,.66-1.53,.82,.35,.12,.69,.31,1,.59,.31,.28,.55,.69,.78,1.25l.53,1.4c.11,.34,.16,.55,.16,.64m-2.71-6.07c0-.16-.02-.32-.07-.46-.04-.15-.13-.28-.27-.38-.11-.11-.29-.19-.49-.25-.2-.06-.47-.09-.78-.09h-1v2.45h.98c.6,0,1.02-.12,1.27-.35,.22-.24,.35-.54,.35-.92"/>
      <path class="cls-1" d="M79.75,96.57c0,2.52-7.61,33.05-7.61,35.58s1.23,3.34,1.23,3.34c0,0,1.66,9.61-10.8,12.68,0,0-10.82-.3-10.3-11.12,.98-9.19,2.44-36.4,17.16-53.11,4.43,.67,10.33,5.56,10.33,12.64m165.31-11.67c2.58,0,8.35-4.42,8.35-8.09,0-1.64-6.26-15.16-14.73-15.16-2.46,0-5.89,3.03-5.89,5.56,0,4.17,3.56,17.69,12.27,17.69m-161.87-9.66c2.58,0,7.34-1.74,7.34-5.4,0-1.65-6.7-17.71-15.17-17.71-2.46,0-5.89,3.03-5.89,5.56,0,4.17,.94,17.54,13.72,17.54M109.4,1.49c-3.48-3.93-48.15-8.98-86.66,112.44-.26,.84-1.47,.77-1.64-.1-6.04-32.22-3.39-68.75-4.15-74.61-1.9-14.62-14.29-9.96-14.29-9.96-5.59,11.61-2.01,105.39,7.32,117.61,5.57,2.38,21.5,1.55,24.88-2.23,0,0,22.33-118.57,74.54-143.14m239.58,86.75c-1.14,0-1.83,1.44-1.83,1.44-13.51,24.37-25.74,43.8-36.14,44.58-2.23,.14-3.46-1.08-3.9-3.46-1.27-9.39,7.52-32.52,6.9-39.13-.23-2.43-1.47-2.18-3.03-3.15-.5,.39-1.06,.98-1.65,1.71-.24,.3-.64,.41-1.01,.27-6.24-2.27-14.03-3.87-18.7-4.51,4.79-13.46,14.8-41.69,14.8-44.22,0-6.32-4.63-8.45-12.48-10.57-12.62,22.24-20.65,52.51-21.2,54.78-4.08,3.67-10.26,.3-11.46,7.49,3.06,3.24,8.81,5.91,8.81,8.44s-4.29,12.71-2.65,46.21c2.22,.86,11.3-8.85,11.58-11.74,2.52-26.06,9.11-35.4,9.11-35.4,0,0,10.3,.33,16.49-.89,.18-.04,.33,.15,.24,.32-1.47,2.98-10.33,21.22-10.39,29.67-.08,10.95,3.49,17.14,12.61,17.97,1.82,.21,3.76,.26,5.81,.03,8.57-1.12,18.69-5.54,27.16-15.44,.54-.64,1.56-.08,1.34,.72-13.39,47.67-39.17,59.6-50.02,62.2,.38,3.32,19.14,2.37,32.27-8.73,15.19-12.84,26.4-32.46,30.89-47.87,1.43-4.89,2.83-9.91,3.9-15.06,1.9-9.2,3.04-18.76,3.2-28.31,.02-1.59-8.79-7.37-10.65-7.37m-89.32,53.46c-.17,.02-.33,.02-.48,.02-13.99,0,2.46-49.33-17.26-46.67-3.32,.45-8.42,3.06-10.11,3.97-.36,.19-.66,.48-.87,.83-1.68,2.82-10.14,16.59-24.46,31.86-1.17,1.25-3.29,.8-3.8-.83-7.19-23.16,24.43-91.29,24.9-92.78,2.38-7.66-8.1-11.31-13.33-11.89-11.44,16.19-30.64,67.57-28.73,108.47,.02,.53-.27,1.02-.77,1.22-3.23,1.34-14.91,5.59-13.54-3.96,.36-2.49,5.89-17.18,5.89-19.7,0-1.65-6.99-11.12-12.27-11.12-2.15,0-22.01,25.07-28.69,30.92-1.13,.99-2.9,.58-3.53-.79-3.6-7.91,5.11-29.71,30-37.97,.25-.08,5.44-4.98,6.38-6.32,.39-.57,.48-1.29,.3-1.96-.3-1.15-1.8-1.93-1.89-1.97,0,0,0,0,0,0-13.82-6.38-44.6-5.49-49.85-6.21,3.87-17.65,15.96-45.9,16.29-48.64,.52-4.24-3.65-8.36-12.21-10.67-13.82,24.35-25.24,56.6-25.84,59.08-2.3,2.4-5.73,1.43-7.88,8.2,0,3.06,4.97,6.47,4.97,9.24s-4.71,17.51-2.9,54.18c6.81,.41,14.17-10.38,14.65-13.52,4.35-28.21,8.6-41.36,8.6-41.36,10.71-.05,19.8-.76,27.31-1.77,.27-.04,.41,.3,.21,.47-13.21,11.17-25.8,22.02-25.5,42.95,.12,8.47,9.08,13.28,14.24,13.27,8.89-.03,17.98-7.93,22.33-12.84,.81-.92,2.33-.5,2.53,.71,1.3,8.04,7.98,12.12,14.43,12.12,5.93,0,14.7-5.59,18.06-7.44,.3-.16,.65-.09,.87,.16,2.23,2.53,6.72,7.29,11.02,7.29,12.84,0,25.86-18.69,33.11-30.23,.63-1,2.16-.74,2.43,.42,2.79,12.36,2.67,29.82,15.1,29.82,3.37,0,7.61-.89,11.32-2.18,2.57-.89,1.69-4.62-1.02-4.38"/>
    </g>
  </g>
</svg>